<?xml version="1.0" standalone="no"?>
<!DOCTYPE svg PUBLIC "-//W3C//DTD SVG 20010904//EN"
 "http://www.w3.org/TR/2001/REC-SVG-20010904/DTD/svg10.dtd">
<svg version="1.0" xmlns="http://www.w3.org/2000/svg"
 width="612.000000pt" height="612.000000pt" viewBox="0 0 612.000000 612.000000"
 preserveAspectRatio="xMidYMid meet">
<metadata>
Created by potrace 1.11, written by Peter Selinger 2001-2013
</metadata>
<g transform="translate(0.000000,612.000000) scale(0.100000,-0.100000)"
fill="#000000" stroke="none">
<path d="M2653 5597 c-47 -51 -82 -137 -86 -210 -5 -96 48 -286 132 -471 32
-70 33 -81 15 -181 -8 -42 78 -175 194 -299 67 -72 221 -268 247 -314 30 -54
31 -61 4 -120 -12 -25 -46 -105 -76 -177 -83 -197 -98 -220 -164 -261 -43 -26
-68 -51 -97 -97 -30 -47 -53 -69 -91 -90 -37 -19 -53 -24 -56 -15 -2 7 -11 38
-19 68 -9 30 -19 60 -23 66 -12 16 -49 34 -72 34 -14 0 -26 11 -36 38 -19 43
-51 231 -60 347 -12 163 -25 179 -179 226 -187 58 -450 177 -576 262 -25 16
-85 57 -134 90 -49 33 -109 68 -133 77 -25 9 -59 30 -75 46 -125 117 -302 405
-398 645 -71 180 -97 232 -126 259 -33 32 -62 17 -94 -46 -34 -66 -38 -213 -9
-324 46 -177 146 -325 392 -580 118 -123 139 -150 152 -194 28 -93 40 -100
302 -182 174 -55 452 -154 532 -189 61 -28 71 -40 91 -117 7 -23 46 -122 88
-218 63 -146 75 -185 77 -235 1 -33 8 -72 15 -88 7 -15 11 -28 9 -30 -2 -1
-29 -13 -59 -25 l-55 -22 -61 25 c-33 13 -85 27 -115 31 -30 3 -59 10 -65 15
-6 5 -30 41 -54 81 -102 173 -260 274 -550 351 -111 30 -122 31 -335 31 -234
1 -277 -3 -380 -35 -231 -71 -427 -201 -564 -373 -57 -72 -114 -173 -132 -235
-12 -41 -14 -43 -20 -20 -5 15 -7 0 -8 -43 -1 -81 36 -194 101 -302 86 -145
280 -307 459 -382 183 -77 313 -105 519 -110 235 -5 427 35 612 130 152 77
266 180 324 290 28 55 29 55 84 62 30 4 86 18 123 31 67 24 69 24 115 7 63
-23 67 -28 48 -56 -10 -16 -16 -44 -15 -79 1 -47 -9 -77 -74 -224 -41 -93 -87
-205 -102 -247 l-27 -77 -77 -32 c-134 -56 -306 -117 -494 -175 -260 -80 -298
-105 -326 -210 -9 -32 -33 -63 -117 -145 -250 -245 -388 -448 -423 -620 -45
-216 21 -426 113 -365 32 20 41 37 115 225 72 181 145 322 251 480 112 166
149 205 239 249 42 21 115 65 161 98 191 135 370 224 625 311 181 61 203 72
209 101 3 15 17 101 31 192 29 194 53 310 67 328 6 6 21 12 34 12 41 0 75 40
88 105 10 51 15 59 32 57 27 -5 104 -55 104 -68 0 -24 62 -95 112 -128 60 -41
94 -87 134 -183 15 -37 49 -119 76 -182 26 -62 48 -123 48 -136 0 -42 -77
-149 -255 -355 -124 -143 -151 -180 -184 -245 -28 -55 -30 -95 -6 -156 3 -8
-16 -67 -43 -130 -147 -341 -155 -528 -27 -652 32 -31 45 -37 79 -36 23 1 33
3 23 6 -13 3 -16 10 -12 21 18 44 24 80 30 184 22 391 38 460 133 580 21 26
68 104 105 173 37 69 97 181 134 250 37 68 93 157 125 197 78 97 100 140 106
213 6 75 -6 100 -116 253 -145 202 -143 198 -140 294 3 78 4 83 26 86 43 6
109 -28 152 -79 30 -35 63 -59 123 -89 107 -52 226 -148 307 -246 35 -44 97
-113 136 -154 78 -81 95 -108 199 -305 143 -275 169 -322 207 -377 22 -31 52
-61 66 -67 15 -6 117 -29 227 -51 229 -45 408 -97 580 -168 356 -147 333 -139
341 -117 17 43 -73 158 -192 246 -73 54 -203 115 -298 139 -87 22 -237 40
-335 40 l-71 0 -79 83 c-202 210 -390 492 -446 668 -26 84 -45 107 -138 165
-140 89 -257 169 -257 175 0 4 15 10 34 13 81 15 140 40 212 88 85 57 82 57
110 -27 29 -88 84 -185 129 -230 66 -67 167 -86 295 -58 36 8 105 22 154 33
80 16 92 22 135 63 51 50 122 97 146 97 8 0 15 -2 15 -4 0 -3 -27 -78 -59
-168 -73 -201 -98 -314 -82 -368 15 -51 29 -60 108 -70 131 -17 439 -123 630
-217 104 -51 225 -133 387 -261 120 -94 161 -110 200 -73 12 12 26 18 29 14 4
-3 7 15 7 41 0 113 -120 236 -335 343 -144 73 -289 121 -707 234 -116 31 -118
32 -127 65 -33 119 50 513 112 537 16 6 86 14 197 22 98 7 180 46 254 122 55
54 132 186 120 204 -9 15 -45 10 -129 -17 -62 -20 -91 -24 -129 -19 -60 8
-101 28 -122 60 -23 36 -11 70 38 102 35 24 50 27 107 26 36 -1 97 -11 136
-23 99 -29 108 -28 100 13 -19 87 -101 196 -183 244 -69 41 -115 53 -225 59
-148 8 -173 17 -197 65 -12 22 -35 95 -52 162 -24 96 -31 145 -32 230 -1 92 2
110 16 121 10 7 140 48 290 91 150 43 313 93 363 112 178 68 323 151 406 234
56 55 77 93 85 153 6 41 4 48 -25 77 -46 46 -63 39 -232 -93 -214 -166 -402
-264 -724 -374 -130 -45 -202 -63 -265 -68 -64 -5 -99 -28 -107 -69 -9 -39 -9
-39 1 -110 8 -60 51 -196 105 -330 36 -89 37 -97 15 -97 -22 0 -101 56 -120
85 -19 30 -90 65 -130 65 -17 0 -68 11 -115 25 -57 18 -112 26 -170 28 -79 2
-89 0 -134 -28 -72 -45 -167 -194 -196 -310 -6 -25 -13 -45 -15 -45 -2 0 -27
17 -55 39 -70 53 -125 79 -199 94 l-63 13 44 38 c24 21 91 65 148 99 119 70
177 120 186 162 20 92 105 257 208 405 83 120 134 181 244 293 l95 97 76 1
c270 2 424 47 627 183 102 68 196 179 189 224 -1 6 -2 17 -3 22 -2 21 -60 8
-156 -36 -361 -165 -591 -234 -885 -268 -79 -9 -124 -28 -162 -69 -22 -24 -80
-124 -138 -237 -208 -408 -222 -430 -272 -456 -14 -7 -62 -60 -106 -116 -43
-57 -104 -126 -134 -155 -63 -59 -199 -150 -237 -160 -48 -11 -76 -31 -101
-72 -14 -23 -38 -47 -55 -55 -41 -18 -105 -39 -110 -34 -2 2 -7 35 -10 74 -9
88 1 108 127 283 124 170 142 208 134 279 -7 66 -28 110 -94 195 -84 107 -111
152 -228 379 -62 122 -133 246 -157 277 -24 31 -51 79 -60 106 -26 80 -52 257
-62 430 -14 239 -46 285 -132 192z"/>
</g>
</svg>
